<svg width="30" height="30" viewBox="0 0 30 30" fill="none" xmlns="http://www.w3.org/2000/svg">
<g clip-path="url(#clip0_5311_226)">
<path d="M15.0005 5.66122C17.9368 3.02497 22.4743 3.11248 25.303 5.94622C28.1305 8.78122 28.228 13.2962 25.598 16.2412L14.998 26.8562L4.40053 16.2412C1.77053 13.2962 1.86928 8.77372 4.69553 5.94622C7.52678 3.11623 12.0555 3.02122 15.0005 5.66122ZM23.533 7.71247C21.658 5.83498 18.633 5.75873 16.6705 7.52122L15.0018 9.01872L13.3318 7.52247C11.363 5.75747 8.34427 5.83497 6.46428 7.71497C4.60178 9.57747 4.50803 12.5587 6.22428 14.5287L14.9993 23.3175L23.7743 14.53C25.4918 12.5587 25.398 9.58122 23.533 7.71247Z" fill="#F4683F"/>
</g>
<defs>
<clipPath id="clip0_5311_226">
<rect width="30" height="30" fill="white"/>
</clipPath>
</defs>
</svg>
