<svg width="30" height="31" viewBox="0 0 30 31" fill="none" xmlns="http://www.w3.org/2000/svg">
<g clip-path="url(#clip0_5311_229)">
<path d="M16.3995 21.6232L11.1508 18.7283C10.4655 19.4692 9.57576 19.9845 8.59712 20.2072C7.61848 20.4299 6.59621 20.3499 5.66318 19.9773C4.73014 19.6048 3.92948 18.957 3.36523 18.1183C2.80099 17.2795 2.49927 16.2884 2.49927 15.274C2.49927 14.2595 2.80099 13.2685 3.36523 12.4297C3.92948 11.5909 4.73014 10.9431 5.66318 10.5706C6.59621 10.1981 7.61848 10.118 8.59712 10.3407C9.57576 10.5635 10.4655 11.0788 11.1508 11.8197L16.4008 8.92473C16.1027 7.73146 16.2452 6.46921 16.8016 5.3746C17.3579 4.27998 18.2899 3.42814 19.4229 2.97876C20.5558 2.52938 21.8119 2.5133 22.9558 2.93355C24.0996 3.35379 25.0526 4.1815 25.6362 5.26153C26.2197 6.34156 26.3938 7.59975 26.1257 8.80027C25.8575 10.0008 25.1657 11.0612 24.1798 11.7828C23.1939 12.5043 21.9817 12.8374 20.7703 12.7197C19.5589 12.602 18.4315 12.0415 17.5995 11.1433L12.3495 14.0382C12.551 14.849 12.551 15.6976 12.3495 16.5084L17.5983 19.4033C18.4303 18.5051 19.5576 17.9447 20.769 17.8269C21.9804 17.7092 23.1927 18.0424 24.1786 18.7639C25.1645 19.4855 25.8563 20.5459 26.1244 21.7464C26.3925 22.9469 26.2185 24.2051 25.6349 25.2851C25.0513 26.3652 24.0983 27.1929 22.9545 27.6131C21.8107 28.0334 20.5546 28.0173 19.4216 27.5679C18.2887 27.1185 17.3567 26.2667 16.8003 25.1721C16.244 24.0775 16.1015 22.8152 16.3995 21.6219V21.6232ZM7.49953 17.8016C8.16257 17.8016 8.79845 17.5353 9.26729 17.0611C9.73613 16.587 9.99953 15.9439 9.99953 15.2733C9.99953 14.6028 9.73613 13.9597 9.26729 13.4855C8.79845 13.0114 8.16257 12.745 7.49953 12.745C6.83648 12.745 6.2006 13.0114 5.73176 13.4855C5.26292 13.9597 4.99953 14.6028 4.99953 15.2733C4.99953 15.9439 5.26292 16.587 5.73176 17.0611C6.2006 17.5353 6.83648 17.8016 7.49953 17.8016ZM21.2495 10.2167C21.9126 10.2167 22.5485 9.95032 23.0173 9.47617C23.4861 9.00202 23.7495 8.35893 23.7495 7.68838C23.7495 7.01783 23.4861 6.37474 23.0173 5.90059C22.5485 5.42644 21.9126 5.16006 21.2495 5.16006C20.5865 5.16006 19.9506 5.42644 19.4818 5.90059C19.0129 6.37474 18.7495 7.01783 18.7495 7.68838C18.7495 8.35893 19.0129 9.00202 19.4818 9.47617C19.9506 9.95032 20.5865 10.2167 21.2495 10.2167ZM21.2495 25.3866C21.9126 25.3866 22.5485 25.1202 23.0173 24.6461C23.4861 24.1719 23.7495 23.5288 23.7495 22.8583C23.7495 22.1877 23.4861 21.5446 23.0173 21.0705C22.5485 20.5963 21.9126 20.33 21.2495 20.33C20.5865 20.33 19.9506 20.5963 19.4818 21.0705C19.0129 21.5446 18.7495 22.1877 18.7495 22.8583C18.7495 23.5288 19.0129 24.1719 19.4818 24.6461C19.9506 25.1202 20.5865 25.3866 21.2495 25.3866Z" fill="#F4683F"/>
</g>
<defs>
<clipPath id="clip0_5311_229">
<rect width="30" height="30.3398" fill="white" transform="translate(0 0.103516)"/>
</clipPath>
</defs>
</svg>
